<svg width="60" height="66" viewBox="0 0 60 66" fill="none" xmlns="http://www.w3.org/2000/svg">
<path d="M45.75 58.25C45.75 59.9076 46.4085 61.4973 47.5806 62.6694C48.7527 63.8415 50.3424 64.5 52 64.5C53.6576 64.5 55.2473 63.8415 56.4194 62.6694C57.5915 61.4973 58.25 59.9076 58.25 58.25C58.25 56.5924 57.5915 55.0027 56.4194 53.8306C55.2473 52.6585 53.6576 52 52 52C50.3424 52 48.7527 52.6585 47.5806 53.8306C46.4085 55.0027 45.75 56.5924 45.75 58.25ZM45.75 58.25H39.5M14.5 8.25C14.5 9.9076 13.8415 11.4973 12.6694 12.6694C11.4973 13.8415 9.9076 14.5 8.25 14.5C6.5924 14.5 5.00268 13.8415 3.83058 12.6694C2.65848 11.4973 2 9.9076 2 8.25C2 6.5924 2.65848 5.00268 3.83058 3.83058C5.00268 2.65848 6.5924 2 8.25 2C9.9076 2 11.4973 2.65848 12.6694 3.83058C13.8415 5.00268 14.5 6.5924 14.5 8.25ZM14.5 8.25H20.75M36.375 8.25H30.125M30.125 58.25H23.875M2 58.25C27 58.25 33.25 8.25 58.25 8.25" stroke="#1D1D1D" stroke-width="3" stroke-linecap="round" stroke-linejoin="round"/>
</svg>
