<svg width="65" height="65" viewBox="0 0 65 65" fill="none" xmlns="http://www.w3.org/2000/svg">
<path d="M32.5 54.1666C26.7536 54.1666 21.2426 51.8839 17.1794 47.8206C13.1161 43.7573 10.8333 38.2463 10.8333 32.5C10.8333 26.7536 13.1161 21.2426 17.1794 17.1793C21.2426 13.116 26.7536 10.8333 32.5 10.8333C38.2464 10.8333 43.7574 13.116 47.8207 17.1793C51.8839 21.2426 54.1667 26.7536 54.1667 32.5C54.1667 38.2463 51.8839 43.7573 47.8207 47.8206C43.7574 51.8839 38.2464 54.1666 32.5 54.1666ZM32.5 5.41663C28.9434 5.41663 25.4216 6.11716 22.1357 7.47822C18.8498 8.83929 15.8641 10.8342 13.3492 13.3492C8.27009 18.4283 5.41667 25.317 5.41667 32.5C5.41667 39.6829 8.27009 46.5717 13.3492 51.6508C15.8641 54.1657 18.8498 56.1606 22.1357 57.5217C25.4216 58.8828 28.9434 59.5833 32.5 59.5833C39.683 59.5833 46.5717 56.7299 51.6508 51.6508C56.7299 46.5717 59.5833 39.6829 59.5833 32.5C59.5833 28.9433 58.8828 25.4215 57.5217 22.1356C56.1607 18.8497 54.1657 15.8641 51.6508 13.3492C49.1359 10.8342 46.1503 8.83929 42.8643 7.47822C39.5784 6.11716 36.0566 5.41663 32.5 5.41663ZM32.5 33.8541C31.4226 33.8541 30.3893 33.4261 29.6274 32.6642C28.8655 31.9024 28.4375 30.8691 28.4375 29.7916C28.4375 28.7142 28.8655 27.6809 29.6274 26.919C30.3893 26.1571 31.4226 25.7291 32.5 25.7291C33.5774 25.7291 34.6108 26.1571 35.3726 26.919C36.1345 27.6809 36.5625 28.7142 36.5625 29.7916C36.5625 30.8691 36.1345 31.9024 35.3726 32.6642C34.6108 33.4261 33.5774 33.8541 32.5 33.8541ZM32.5 19.5C26.8125 19.5 22.2083 24.1041 22.2083 29.7916C22.2083 37.9166 32.5 47.3958 32.5 47.3958C32.5 47.3958 42.7917 37.9166 42.7917 29.7916C42.7917 24.1041 38.1875 19.5 32.5 19.5Z" fill="#1D1D1D"/>
</svg>
