<svg width="188" height="188" viewBox="0 0 188 188" fill="none" xmlns="http://www.w3.org/2000/svg">
<g clip-path="url(#clip0_17_1069)">
<path d="M173.935 64.8581C167.928 61.726 162.988 59.784 148.603 54.9012C142.874 52.9579 136.291 50.624 133.94 49.7136C121.755 45.0437 104.957 36.9379 81.6154 24.4713C78.2471 22.6867 75.3562 21.2402 75.1727 21.2802C73.9391 21.5297 75.4749 22.5792 86.1959 28.6446C105.28 39.4818 133.026 51.8733 155.38 59.538C159.93 61.1035 164.8 62.8109 166.188 63.3546C168.761 64.3128 173.356 66.349 173.388 66.4958C173.404 66.5692 162.936 66.2542 150.152 65.8091C116.114 64.6877 97.5318 64.2753 81.4475 64.2992C77.3729 64.3024 73.8729 64.2958 73.659 64.2847C73.4308 64.2959 73.3474 63.2953 73.4505 61.562C73.5137 60.0873 73.617 58.7961 73.6744 58.7067C73.7175 58.6396 74.2746 58.9028 74.9004 59.3047C77.1576 60.7546 80.3389 61.9455 80.1807 61.3072C80.1567 61.1971 78.7439 60.4475 77.0423 59.6071C75.363 58.781 73.8832 57.9884 73.7698 57.8209C73.6644 57.69 73.5729 56.2106 73.5818 54.5747L73.5679 51.5982L74.8305 52.1882C75.4994 52.5231 76.8164 53.2743 77.7327 53.8629C79.7441 55.1548 81.259 55.8437 81.2525 55.4607C81.2763 55.1287 74.4135 51.068 73.9731 51.1639C73.7672 51.1896 73.6102 49.7628 73.5679 47.7152C73.5353 45.8 73.5442 44.1641 73.5873 44.0971C73.6303 44.03 75.1341 44.9328 76.9811 46.0875C80.8619 48.5486 83.0249 49.6538 83.352 49.3903C83.5339 49.2546 82.1546 48.3055 78.5436 46.1124L73.4879 43.023L73.4467 39.7449C73.4013 37.9478 73.4422 36.4587 73.5156 36.4427C73.589 36.4268 76.1623 37.827 79.2193 39.5064C85.3412 42.9018 85.876 43.1506 86.1057 42.793C86.2779 42.5248 83.3598 40.7768 77.9994 37.9651C76.5866 37.2156 74.9647 36.3001 74.406 35.9413L73.4003 35.2953L73.5154 31.6755C73.5625 29.6853 73.6368 27.9967 73.6495 27.8786C73.6846 27.7749 76.1174 29.1481 79.117 30.9168C86.8817 35.5884 88.8595 36.6378 89.2377 36.344C89.5647 36.0805 87.8742 35.0263 77.2169 28.8125L73.756 26.7789L73.8749 24.677C73.9634 22.524 73.7557 22.0117 72.9005 22.4095C72.535 22.5852 72.3041 23.7312 71.8428 27.7916C70.572 38.8139 70.6445 48.6787 72.103 60.3177C72.3831 62.4865 72.5099 64.3043 72.3711 64.3729C71.7281 64.686 79.2471 77.8499 82.7154 82.4769C83.4164 83.4007 84.0057 84.2528 84.044 84.3405C84.068 84.4506 81.3375 85.0646 78.0038 85.733C73.3183 86.6382 71.9028 87.0234 71.8279 87.3857C71.6926 88.088 71.9895 88.2155 73.5997 88.0186L74.9898 87.8696L79.3223 90.463C83.6995 93.0851 88.7007 95.5713 89.3247 95.4354C90.0221 95.2835 89.2909 94.7507 85.9834 93.0682C84.1029 92.113 81.113 90.4767 79.3347 89.4607L76.1196 87.5851L81.0173 86.5953L85.8783 85.6134L89.0439 87.6151C92.5671 89.8465 94.4699 90.8161 94.5959 90.4235C94.6373 90.2607 93.2724 89.2893 90.8155 87.806L86.9731 85.4326L88.9328 84.9866L90.9068 84.5182L95.2217 86.9424C99.3802 89.2661 99.974 89.5212 99.8701 89.0441C99.8205 88.7281 95.7178 86.2192 93.831 85.323C92.9546 84.918 92.2554 84.532 92.2251 84.481C92.1931 84.3341 129.066 77.1106 152.23 72.6998C161.902 70.8622 169.798 69.4307 169.814 69.5041C169.845 69.5551 168.662 70.2163 167.245 70.9479C150.759 79.3636 130.442 91.2856 113.298 102.594C101.712 110.211 96.9527 113.689 92.8477 117.524C90.8966 119.333 88.8273 121.129 88.2225 121.53C87.4136 122.052 86.994 122.509 86.6751 123.251C85.6737 125.449 84.5726 125.689 83.5552 123.931C83.2438 123.383 82.6625 122.568 82.2426 122.141C81.8371 121.691 81.1806 120.353 80.77 119.174L79.9967 117.036L83.6667 119.235C88.8405 122.337 88.786 121.734 83.6233 118.418L79.6227 115.849L78.8429 113.327C77.7099 109.537 77.52 109.636 81.2333 112.211C83.0452 113.469 84.7358 114.524 85.031 114.555C85.371 114.616 84.1018 113.643 81.6114 111.917L77.6603 109.221L75.8366 102.525L74.013 95.8292L77.4515 97.8484C82.4529 100.777 85.9567 102.301 85.5062 101.38C85.4376 101.241 83.6592 100.226 81.5106 99.098C79.3763 97.9482 76.7423 96.4458 75.6329 95.7647L73.6438 94.4871L72.843 91.6051C72.0583 88.7964 71.7756 88.2044 71.4598 88.6961C70.9861 89.4337 74.0108 102.615 76.5933 111.03C77.1781 112.921 77.5746 114.565 77.5028 114.676C77.431 114.788 77.5077 114.964 77.6642 115.064C77.7982 115.15 78.4053 116.614 78.9646 118.299C81.3406 125.413 82.7816 129.116 83.2046 129.293C83.5239 129.435 83.8222 129.217 84.4619 128.27C89.1531 121.654 93.8993 116.968 101.847 111.181C106.839 107.537 109.784 105.704 128.538 94.5453C149.041 82.3328 156.252 78.2825 171.246 70.5186C175.14 68.5364 176.266 68.0604 176.785 68.2357C177.245 68.4047 177.516 68.3264 177.775 67.9241C178.105 67.4101 178.044 67.308 177.142 66.6971C176.598 66.3158 175.169 65.4929 173.935 64.8581ZM170.629 68.0386C170.352 68.176 169.346 68.4142 168.398 68.563C167.45 68.7118 163.138 69.478 158.834 70.2808C154.53 71.0837 144.673 72.8655 136.937 74.2427C129.202 75.6199 114.396 78.4219 104.064 80.4991C87.4321 83.8333 85.2425 84.1948 85.1019 83.7257C85.0156 83.4177 84.3001 82.0741 83.5111 80.7466L82.0913 78.2877L84.6599 79.8428C88.3826 82.1076 88.1493 81.3895 84.3499 78.9492L81.2433 76.9538L79.7151 74.6147L78.1724 72.2979L81.5903 74.3985C84.1668 75.9903 85.0288 76.4177 85.091 76.1735C85.1531 75.9293 84.1234 75.1732 81.1733 73.2783L77.1727 70.7087L75.9542 68.8211C75.266 67.7792 74.7788 66.8665 74.8283 66.7404C74.8857 66.651 75.5098 66.9572 76.225 67.4166C76.9178 67.8616 79.3203 69.1837 81.5137 70.3399C83.7294 71.5105 85.5954 72.4881 85.7072 72.5599C85.7966 72.6173 85.9354 72.5486 86.0072 72.4369C86.2082 72.124 84.5399 71.0841 79.1715 68.2358C76.6429 66.8642 74.2772 65.5341 73.9706 65.2741C73.4853 64.8992 74.9951 64.8587 82.4788 65.151C104.038 65.9916 169.736 67.9065 170.639 67.729C171.153 67.6171 171.177 67.7272 170.629 68.0386Z" fill="#5E5E5E"/>
<path d="M60.9092 69.7336C55.6449 67.8045 49.7275 69.0549 45.7119 72.9475C43.2183 75.3552 41.3607 79.6236 41.3428 82.8954L41.345 84.3174L39.4013 84.8369C34.8899 86.0117 30.7736 89.6186 28.1343 94.7109C25.9734 98.9107 25.1311 103.958 25.886 108.041C26.2426 109.944 26.2219 110.025 25.297 111.957C21.7009 119.276 23.8362 126.961 31.4998 134.346C32.8106 135.598 33.315 135.796 33.717 135.17C33.9323 134.835 33.8236 134.513 33.2233 133.874C32.7587 133.418 31.6841 132.191 30.7676 131.161C25.4027 125.063 23.9991 119.236 26.5169 113.498C26.8295 112.815 27.115 112.272 27.182 112.315C27.2491 112.358 27.792 113.086 28.3812 113.938C29.341 115.343 29.7225 115.683 32.1363 117.233C35.1758 119.186 36.2357 119.551 40.1843 119.94C43.5057 120.274 47.3964 119.427 50.1456 117.751C52.1002 116.576 52.18 116.501 53.6506 114.162C55.3652 111.444 55.6616 110.245 55.2535 107.489C54.2566 100.882 45.7425 98.0651 37.1734 101.527C34.2389 102.704 30.7557 104.982 29.1062 106.763C27.6449 108.35 27.6592 108.328 27.3903 106.387C26.438 99.367 30.7087 90.9976 37.2954 87.0832C38.2799 86.4844 39.5884 85.8726 40.2187 85.6776L41.3693 85.3117L41.7848 86.7782C42.464 89.0139 43.9379 91.1919 45.6031 92.4824C46.7972 93.3757 47.332 93.6244 48.9217 93.951C53.1961 94.8654 57.4506 93.7465 59.052 91.3025C60.3296 89.3134 59.5223 86.0483 57.2233 83.8771C55.7257 82.4732 53.3201 81.4016 50.8685 81.0898C48.7937 80.8304 45.3785 81.4782 43.9648 82.4012L42.9373 83.0671L43.0628 81.7903C43.3331 79.0594 44.5546 76.3713 46.4865 74.2974C48.83 71.7301 53.828 70.1417 57.7862 70.6637C61.3088 71.1267 63.759 72.227 66.5705 74.6326C67.4231 75.3696 67.6753 75.4685 67.7518 75.2019C68.0147 74.2027 63.7042 70.7395 60.9092 69.7336ZM56.739 86.1547C57.1222 86.5903 57.563 87.3785 57.7419 87.9354C58.0072 88.8004 57.9387 89.1036 57.3358 90.0423C55.6132 92.7242 52.3259 93.9592 49.59 92.9596C47.1287 92.0732 44.5196 89.0083 43.5545 85.9891L43.2109 84.8529L44.3406 84.1263C46.6063 82.614 49.7407 82.3542 52.4335 83.4209C54.0361 84.0714 55.9502 85.2693 56.739 86.1547ZM52.4262 105.452C53.3142 106.969 53.6152 109.499 53.0701 111.232C51.8444 115.401 47.7613 117.925 42.0381 118.037C36.3516 118.141 31.9155 115.955 29.3029 111.815L28.2888 110.248L28.9604 109.448C32.6598 105.163 38.5733 101.953 43.4808 101.537C44.3937 101.492 46.0295 101.501 47.1149 101.63L49.1004 101.832L50.4558 103.113C51.2126 103.852 52.0924 104.89 52.4262 105.452Z" fill="#5E5E5E"/>
<path d="M81.4076 105.156C79.9422 104.341 78.3203 103.426 77.8143 103.133C77.1518 102.739 76.9523 102.705 77.0162 102.999C77.1202 103.476 83.9335 107.663 84.8353 107.832C85.6333 107.965 85.6188 107.546 84.8302 107.102C84.4135 106.866 82.8587 105.994 81.4076 105.156Z" fill="#5E5E5E"/>
</g>
<defs>
<clipPath id="clip0_17_1069">
<rect width="136" height="136" fill="white" transform="translate(73.4981) rotate(32.7127)"/>
</clipPath>
</defs>
</svg>
