<svg width="75" height="75" viewBox="0 0 75 75" fill="none" xmlns="http://www.w3.org/2000/svg">
<path d="M37.5 15.625C34.5992 15.625 31.8172 16.7773 29.766 18.8285C27.7148 20.8797 26.5625 23.6617 26.5625 26.5625C26.5625 29.4633 27.7148 32.2453 29.766 34.2965C31.8172 36.3477 34.5992 37.5 37.5 37.5C40.4008 37.5 43.1828 36.3477 45.234 34.2965C47.2852 32.2453 48.4375 29.4633 48.4375 26.5625C48.4375 23.6617 47.2852 20.8797 45.234 18.8285C43.1828 16.7773 40.4008 15.625 37.5 15.625ZM37.5 21.875C38.7432 21.875 39.9355 22.3689 40.8146 23.2479C41.6936 24.127 42.1875 25.3193 42.1875 26.5625C42.1875 27.8057 41.6936 28.998 40.8146 29.8771C39.9355 30.7561 38.7432 31.25 37.5 31.25C36.2568 31.25 35.0645 30.7561 34.1854 29.8771C33.3064 28.998 32.8125 27.8057 32.8125 26.5625C32.8125 25.3193 33.3064 24.127 34.1854 23.2479C35.0645 22.3689 36.2568 21.875 37.5 21.875ZM17.1875 25C15.1155 25 13.1284 25.8231 11.6632 27.2882C10.1981 28.7534 9.375 30.7405 9.375 32.8125C9.375 35.75 11.0312 38.2812 13.4062 39.625C14.5312 40.25 15.8125 40.625 17.1875 40.625C18.5625 40.625 19.8438 40.25 20.9688 39.625C22.125 38.9688 23.0938 38.0313 23.8125 36.9063C21.5359 33.9393 20.3052 30.3023 20.3125 26.5625V25.6875C19.375 25.25 18.3125 25 17.1875 25ZM57.8125 25C56.6875 25 55.625 25.25 54.6875 25.6875V26.5625C54.6875 30.3125 53.4687 33.9375 51.1875 36.9063C51.5625 37.5 51.9688 37.9688 52.4375 38.4375C53.8786 39.8347 55.8053 40.6188 57.8125 40.625C59.1875 40.625 60.4687 40.25 61.5937 39.625C63.9687 38.2812 65.625 35.75 65.625 32.8125C65.625 30.7405 64.8019 28.7534 63.3368 27.2882C61.8716 25.8231 59.8845 25 57.8125 25ZM37.5 43.75C30.1875 43.75 15.625 47.4062 15.625 54.6875V59.375H59.375V54.6875C59.375 47.4062 44.8125 43.75 37.5 43.75ZM14.7188 45.4688C8.6875 46.1875 0 49.25 0 54.6875V59.375H9.375V53.3438C9.375 50.1875 11.5312 47.5625 14.7188 45.4688ZM60.2813 45.4688C63.4688 47.5625 65.625 50.1875 65.625 53.3438V59.375H75V54.6875C75 49.25 66.3125 46.1875 60.2813 45.4688ZM37.5 50C42.2812 50 47.625 51.5625 50.7188 53.125H24.2812C27.375 51.5625 32.7188 50 37.5 50Z" fill="#1D1D1D"/>
</svg>
