<svg width="75" height="75" viewBox="0 0 75 75" fill="none" xmlns="http://www.w3.org/2000/svg">
<path d="M44.2188 65.625C43.8021 65.625 43.3979 65.5469 43.0063 65.3906C42.6146 65.2344 42.2636 65 41.9531 64.6875L23.125 45.0781C22.7604 44.7136 22.4604 44.2188 22.225 43.5938C21.9896 42.9688 21.8729 42.3958 21.875 41.875C21.875 40.6771 22.3052 39.6479 23.1656 38.7875C24.0261 37.9271 25.0542 37.4979 26.25 37.5H32.8125C35.5729 37.5 37.9563 36.6011 39.9625 34.8031C41.9688 33.0052 43.1792 30.7792 43.5938 28.125H21.875C20.9896 28.125 20.2469 27.825 19.6469 27.225C19.0469 26.625 18.7479 25.8833 18.75 25C18.75 24.1146 19.05 23.3719 19.65 22.7719C20.25 22.1719 20.9917 21.8729 21.875 21.875H42.6563C41.7708 20.0521 40.4552 18.5542 38.7094 17.3813C36.9636 16.2083 34.9979 15.6229 32.8125 15.625H21.875C20.9896 15.625 20.2469 15.325 19.6469 14.725C19.0469 14.125 18.7479 13.3833 18.75 12.5C18.75 11.6146 19.05 10.8719 19.65 10.2719C20.25 9.67189 20.9917 9.37293 21.875 9.37501H53.125C54.0104 9.37501 54.7531 9.67501 55.3531 10.275C55.9531 10.875 56.2521 11.6167 56.25 12.5C56.25 13.3854 55.95 14.1281 55.35 14.7281C54.75 15.3281 54.0083 15.6271 53.125 15.625H46.0938C46.8229 16.5104 47.474 17.474 48.0469 18.5156C48.6198 19.5573 49.0625 20.6771 49.375 21.875H53.125C54.0104 21.875 54.7531 22.175 55.3531 22.775C55.9531 23.375 56.2521 24.1167 56.25 25C56.25 25.8854 55.95 26.6281 55.35 27.2281C54.75 27.8281 54.0083 28.1271 53.125 28.125H49.9219C49.5052 32.5521 47.6823 36.2636 44.4531 39.2594C41.224 42.2552 37.3438 43.7521 32.8125 43.75H30.5469L46.4844 60.3125C47.4219 61.3021 47.6177 62.4354 47.0719 63.7125C46.5261 64.9896 45.575 65.6271 44.2188 65.625Z" fill="black"/>
</svg>
