<svg width="63" height="63" viewBox="0 0 63 63" fill="none" xmlns="http://www.w3.org/2000/svg">
<path d="M31.2188 0C13.9687 0 0 14 0 31.25C0 48.5 13.9687 62.5 31.2188 62.5C48.5 62.5 62.5 48.5 62.5 31.25C62.5 14 48.5 0 31.2188 0ZM31.25 56.25C17.4375 56.25 6.25 45.0625 6.25 31.25C6.25 17.4375 17.4375 6.25 31.25 6.25C45.0625 6.25 56.25 17.4375 56.25 31.25C56.25 45.0625 45.0625 56.25 31.25 56.25ZM30.5625 15.625H30.375C29.125 15.625 28.125 16.625 28.125 17.875V32.625C28.125 33.7188 28.6875 34.75 29.6562 35.3125L42.625 43.0938C43.6875 43.7188 45.0625 43.4062 45.6875 42.3438C45.8444 42.0907 45.9488 41.8087 45.9944 41.5145C46.0401 41.2202 46.026 40.9198 45.9531 40.6312C45.8802 40.3425 45.75 40.0714 45.5701 39.8341C45.3903 39.5969 45.1645 39.3982 44.9063 39.25L32.8125 32.0625V17.875C32.8125 16.625 31.8125 15.625 30.5625 15.625Z" fill="#1D1D1D"/>
</svg>
