<svg width="75" height="75" viewBox="0 0 75 75" fill="none" xmlns="http://www.w3.org/2000/svg">
<path d="M17.6125 57.3876C15.0008 54.7759 12.9291 51.6754 11.5157 48.2631C10.1022 44.8508 9.37476 41.1935 9.37476 37.5C9.37476 33.8066 10.1022 30.1493 11.5157 26.737C12.9291 23.3247 15.0008 20.2242 17.6125 17.6125M57.3875 17.6125C59.9992 20.2242 62.0709 23.3247 63.4843 26.737C64.8978 30.1493 65.6252 33.8066 65.6252 37.5C65.6252 41.1935 64.8978 44.8508 63.4843 48.2631C62.0709 51.6754 59.9992 54.7759 57.3875 57.3876M26.45 48.5469C23.5208 45.6168 21.8752 41.6432 21.8752 37.5C21.8752 33.3569 23.5208 29.3833 26.45 26.4532M48.55 26.4532C51.4792 29.3833 53.1248 33.3569 53.1248 37.5C53.1248 41.6432 51.4792 45.6168 48.55 48.5469M40.625 37.5C40.625 38.3288 40.2958 39.1237 39.7097 39.7098C39.1237 40.2958 38.3288 40.625 37.5 40.625C36.6712 40.625 35.8763 40.2958 35.2903 39.7098C34.7042 39.1237 34.375 38.3288 34.375 37.5C34.375 36.6712 34.7042 35.8764 35.2903 35.2903C35.8763 34.7043 36.6712 34.375 37.5 34.375C38.3288 34.375 39.1237 34.7043 39.7097 35.2903C40.2958 35.8764 40.625 36.6712 40.625 37.5Z" stroke="#1D1D1D" stroke-width="4" stroke-linecap="round" stroke-linejoin="round"/>
</svg>
